# xmcd
#
# Track frame offsets: 
#        150
#        16352
#        31287
#        43563
#        62953
#        78411
#        97561
#        115829
#        132347
#        152769
#        167977
#        184555
#        199795
#        213051
#        224974
#        238735
#        254321
#        270872
#        289075
#        308691
#
# Disc length: 4353 seconds
#
# Revision: 0
# Processed by: cddbd v1.5.2PL0 Copyright (c) Steve Scherf et al.
# Submitted via: ExactAudioCopy v1.0b1
#
DISCID=1410ff14
DTITLE=Various Artist - New Country Collection Vol.5 [Disc 2]
DYEAR=2012
DGENRE=Country
TTITLE0=Alabama - Sad Lookin' Moon
TTITLE1=Chely Wright - Single White Female
TTITLE2=Mindy McCready - A Girl's Gotta Do (What A Girl's Gotta Do)
TTITLE3=Hal Ketchum - Mama Knows The Highway
TTITLE4=Paul Brandt - My Heart Has A History
TTITLE5=John Michael Montgomery - I Miss You A Little
TTITLE6=Blake Shelton - The Dreamer
TTITLE7=Billy Dean - Tryin' To Hide A Fire In The Dark
TTITLE8=Clint Black with Lisa Hartman Black - When I Said I Do
TTITLE9=Dwight Yoakam - Ain't That Lonely Yet
TTITLE10=Sherrié Austin - Never Been Kissed
TTITLE11=Confederate Railroad - Queen Of Memphis
TTITLE12=Mary Chapin Carpenter - Tender When I Want To Be
TTITLE13=Neal McCoy - You Gotta Love That
TTITLE14=Jamie O'Neal - When I Think About Angels
TTITLE15=Patty Loveless - You Can Feel Bad
TTITLE16=Doug Stone - Little Houses
TTITLE17=Diamond Rio - You're Gone
TTITLE18=Gary Allen - Smoke Rings In The Dark
TTITLE19=Kellie Pickler - I Wonder
EXTD=
EXTT0=
EXTT1=
EXTT2=
EXTT3=
EXTT4=
EXTT5=
EXTT6=
EXTT7=
EXTT8=
EXTT9=
EXTT10=
EXTT11=
EXTT12=
EXTT13=
EXTT14=
EXTT15=
EXTT16=
EXTT17=
EXTT18=
EXTT19=
PLAYORDER=
